<?xml version="1.0" encoding="utf-8"?>
<!-- Generator: Adobe Illustrator 17.1.0, SVG Export Plug-In . SVG Version: 6.00 Build 0)  -->
<!DOCTYPE svg PUBLIC "-//W3C//DTD SVG 1.1//EN" "http://www.w3.org/Graphics/SVG/1.1/DTD/svg11.dtd">
<svg version="1.1" id="Calque_1" xmlns="http://www.w3.org/2000/svg" xmlns:xlink="http://www.w3.org/1999/xlink" x="0px" y="0px"
	 viewBox="0 0 512 512" enable-background="new 0 0 512 512" xml:space="preserve">
<path d="M440.3,65.4c12.8,6.3,24,15.2,32.3,26.2c17.3,23.2,22.1,54.7,14.4,93.7c-7.8,39.5-25.2,72.9-50.6,97
	c-4.6,4.9-9.6,9.4-14.9,13.5c-27.2,21.4-61.5,32.7-99.3,32.7h-6.1h-114L169.9,480h-66.2l5-23.1h23.1l32.3-151.4h94.1
	c90.1,0,165.5-55.5,185.6-150C466.7,48.6,390.1,0,324.2,0H99.5L0,456.9h76L64,512h131.8l32.3-151.4h94.1
	c90.1,0,165.5-55.5,185.6-150C524.7,131.8,487.5,84.7,440.3,65.4z M211.2,93h64.6c32.3,0,53.8,27.8,44.4,62.5
	c-8.1,34.7-41.7,62.5-75.3,62.5h-61.9L211.2,93z"/>
</svg>
