<?xml version="1.0" encoding="utf-8"?>
<!-- Generator: Adobe Illustrator 17.1.0, SVG Export Plug-In . SVG Version: 6.00 Build 0)  -->
<!DOCTYPE svg PUBLIC "-//W3C//DTD SVG 1.1//EN" "http://www.w3.org/Graphics/SVG/1.1/DTD/svg11.dtd">
<svg version="1.1" id="Calque_1" xmlns="http://www.w3.org/2000/svg" xmlns:xlink="http://www.w3.org/1999/xlink" x="0px" y="0px"
	 viewBox="0 0 512 512" enable-background="new 0 0 512 512" xml:space="preserve">
<path fill="#288DFF" d="M464,288c36.5,0,16,96-16,96c16,0,0,80-32,80c0,32-32,48-64,48c-135.2,0-87.6-33.8-224-48V208
	C248.5,171.9,368,81.3,368,0c26.5,0,96,32,0,192c0,0,80,0,96,0C512,192,496,288,464,288z M96,208v256h32v16H64
	c-17.6,0-32-21.6-32-48V240c0-26.4,14.4-48,32-48h64v16H96z"/>
</svg>
